<?xml version="1.0" standalone="no"?>
<!DOCTYPE svg PUBLIC "-//W3C//DTD SVG 20010904//EN"
 "http://www.w3.org/TR/2001/REC-SVG-20010904/DTD/svg10.dtd">
<svg version="1.0" xmlns="http://www.w3.org/2000/svg"
 width="418.000000pt" height="106.000000pt" viewBox="0 0 418.000000 106.000000"
 preserveAspectRatio="xMidYMid meet">

<g transform="translate(0.000000,106.000000) scale(0.100000,-0.100000)"
fill="#000000" stroke="none">
<path d="M395 1029 c-65 -37 -141 -138 -159 -212 l-7 -28 31 23 c28 21 46 24
168 28 l137 5 0 95 0 95 -75 2 c-42 2 -84 -2 -95 -8z"/>
<path d="M43 861 l-33 -64 0 -267 0 -267 33 -64 32 -64 3 198 c1 108 1 286 0
395 l-3 197 -32 -64z"/>
<path d="M1397 783 c-4 -3 -7 -136 -7 -295 l0 -288 1395 0 1395 0 -2 293 -3
292 -1386 3 c-762 1 -1389 -1 -1392 -5z m2753 -288 l0 -275 -1365 0 -1365 0 0
275 0 275 1365 0 1365 0 0 -275z"/>
<path d="M3030 510 c0 -93 1 -100 20 -100 16 0 20 7 20 30 0 28 3 30 35 30 28
0 35 4 35 19 0 15 -8 21 -32 23 -25 2 -34 8 -36 25 -3 19 2 22 35 25 31 2 39
7 41 26 3 21 0 22 -57 22 l-61 0 0 -100z"/>
<path d="M3252 598 c-10 -13 -72 -167 -72 -180 0 -15 41 -8 46 7 4 10 20 15
50 15 32 0 44 -4 44 -15 0 -9 9 -15 25 -15 14 0 25 3 25 7 0 4 -17 49 -37 100
-36 93 -55 112 -81 81z m43 -95 c5 -20 3 -23 -19 -23 -30 0 -30 0 -14 35 12
27 22 24 33 -12z"/>
<path d="M3448 593 c-89 -56 -45 -183 63 -183 21 0 40 10 62 32 32 33 32 33 9
36 -13 2 -32 -4 -41 -12 -37 -34 -91 -6 -91 46 0 43 43 64 85 42 15 -8 36 -14
46 -14 17 0 18 3 9 20 -13 24 -61 50 -92 50 -13 0 -35 -8 -50 -17z"/>
<path d="M3637 604 c-4 -4 -7 -16 -7 -26 0 -14 8 -18 35 -18 l35 0 0 -75 c0
-68 2 -75 20 -75 18 0 20 7 20 74 l0 75 33 3 c24 2 32 8 32 23 0 18 -8 20 -80
23 -45 1 -84 0 -88 -4z"/>
<path d="M3862 594 c-22 -15 -29 -48 -14 -71 4 -7 26 -19 47 -26 47 -16 60
-47 21 -47 -14 0 -28 5 -31 10 -9 15 -45 12 -45 -4 0 -37 87 -61 122 -33 21
16 30 48 19 66 -5 8 -29 24 -53 35 -23 12 -43 28 -43 36 0 21 36 25 47 6 11
-20 48 -21 48 -2 0 20 -39 46 -70 46 -14 0 -36 -7 -48 -16z"/>
<path d="M480 730 c-12 -8 -16 -43 -18 -194 -3 -177 -2 -186 18 -206 26 -26
36 -24 158 50 53 33 120 72 148 89 53 30 68 50 58 75 -7 18 -309 196 -332 196
-9 0 -24 -5 -32 -10z"/>
<path d="M235 250 c27 -93 86 -172 161 -216 35 -21 53 -24 106 -22 l63 3 0 95
0 95 -142 10 c-130 10 -145 13 -169 35 l-26 25 7 -25z"/>
<path d="M868 13 c7 -3 16 -2 19 1 4 3 -2 6 -13 5 -11 0 -14 -3 -6 -6z"/>
</g>
</svg>
