<svg version="1.1" id="Layer_1" xmlns="http://www.w3.org/2000/svg" xmlns:xlink="http://www.w3.org/1999/xlink" x="0px" y="0px"
	 width="100%" viewBox="0 0 456 117" enable-background="new 0 0 456 117" xml:space="preserve">
<path fill="#FDFDFD" opacity="1.000000" stroke="none" 
	d="
M305.000000,118.000000 
	C203.333344,118.000000 102.166687,118.000000 1.000027,118.000000 
	C1.000018,79.000015 1.000018,40.000034 1.000009,1.000038 
	C152.999969,1.000025 304.999939,1.000025 456.999939,1.000013 
	C456.999939,39.999958 456.999939,78.999916 456.999969,117.999939 
	C406.500000,118.000000 356.000000,118.000000 305.000000,118.000000 
M73.674919,38.939003 
	C68.790939,37.727936 66.324280,39.337013 66.008041,44.062546 
	C65.898705,45.696274 66.078224,47.349339 65.940491,49.887184 
	C65.994659,52.925880 66.048828,55.964581 65.940536,59.927498 
	C65.928596,64.536514 65.900993,69.145546 65.908157,73.754532 
	C65.920776,81.868484 68.864685,83.652527 76.645706,79.794792 
	C78.094048,78.806274 79.542381,77.817757 81.651100,76.847038 
	C83.103203,75.906075 84.555305,74.965111 86.668892,73.941505 
	C88.122055,72.983498 89.575218,72.025490 91.645386,71.006157 
	C92.462029,70.414902 93.278671,69.823654 94.793762,69.074158 
	C96.520767,68.106873 98.492294,67.407631 99.916489,66.108406 
	C101.966415,64.238350 105.328835,61.630596 105.021400,59.885525 
	C104.606186,57.528587 101.239357,55.691631 98.707306,53.152664 
	C97.137085,52.466946 95.566864,51.781227 93.401947,50.821236 
	C92.266960,50.248669 91.131981,49.676098 89.477890,48.706676 
	C88.676605,48.073292 87.875328,47.439903 86.730362,46.295418 
	C85.810867,45.882233 84.891373,45.469048 83.609573,44.514023 
	C82.060165,43.732716 80.510765,42.951412 78.533989,41.624458 
	C77.086044,40.873631 75.638100,40.122803 73.674919,38.939003 
M42.953671,110.857742 
	C43.300049,110.880280 43.646423,110.902809 44.765423,111.255844 
	C50.829853,111.487885 56.894287,111.719917 63.632782,112.113594 
	C64.087875,112.056534 64.542969,111.999474 65.899864,112.121948 
	C69.266136,112.062248 72.632408,112.002548 76.905769,112.120636 
	C80.603447,112.061234 84.301132,112.001831 88.914062,112.119431 
	C93.277107,112.064545 97.640160,112.009659 102.924225,112.135033 
	C109.616966,111.516998 116.309700,110.898972 123.752754,110.232605 
	C127.479042,107.776070 131.205338,105.319534 135.557571,102.629768 
	C142.831863,95.022469 146.363586,86.203606 144.530640,75.361389 
	C140.874100,75.361389 137.427551,75.361389 133.201248,75.192848 
	C132.144241,75.250862 131.087219,75.308876 129.236145,75.185432 
	C126.124977,74.888901 123.354225,75.501221 123.019081,79.148682 
	C122.566231,84.077339 119.940208,87.327019 115.148209,89.855209 
	C114.119255,90.074593 113.090309,90.293976 111.141403,90.287659 
	C101.736397,90.394318 92.331383,90.500984 82.076172,90.404106 
	C80.058060,90.520897 78.039955,90.637695 75.141731,90.438408 
	C71.441780,90.543266 67.741821,90.648125 63.177753,90.439774 
	C60.464108,90.536072 57.750465,90.632362 54.263397,90.413162 
	C49.139202,90.504425 45.748917,87.717300 43.046986,82.793213 
	C42.977261,68.648209 42.871422,54.503178 42.883202,40.358242 
	C42.884686,38.576595 43.504936,36.795467 44.377514,34.554096 
	C48.141327,28.664816 54.415142,30.280228 60.718010,29.671240 
	C63.137432,29.571644 65.556854,29.472046 68.839943,29.672470 
	C71.564835,29.572330 74.289734,29.472191 77.882019,29.673567 
	C81.259407,29.574038 84.636803,29.474510 88.884041,29.674856 
	C92.248528,29.573635 95.613022,29.472414 99.831444,29.671471 
	C102.226639,29.572687 104.621834,29.473904 107.858459,29.671957 
	C111.206024,30.245523 114.553581,30.819090 118.249077,31.946774 
	C119.759941,34.566238 121.934296,37.022343 122.628723,39.842819 
	C123.715195,44.255657 126.048790,45.389610 130.813522,44.733646 
	C131.871353,44.732151 132.929184,44.730659 134.889923,44.942245 
	C138.120010,44.942245 141.350113,44.942245 144.681229,44.942245 
	C145.863235,33.064045 142.712936,23.542273 133.676605,15.499453 
	C129.775574,13.401336 125.874535,11.303219 121.369522,8.703889 
	C120.574097,8.509809 119.779900,8.151690 118.983055,8.145683 
	C99.993179,8.002529 81.003021,7.897179 61.141197,7.477554 
	C55.429600,7.986088 49.718006,8.494622 43.279507,9.011890 
	C41.094902,10.071189 38.910301,11.130487 36.020576,12.371517 
	C33.705479,14.326888 31.390379,16.282259 28.466995,18.487158 
	C23.903259,23.791435 20.522829,29.787788 20.416025,36.861713 
	C20.184813,52.175831 20.216135,67.500168 20.510107,82.813217 
	C20.648491,90.021515 23.608862,96.322304 29.140255,101.996262 
	C31.353710,103.704971 33.567162,105.413673 36.166702,107.700729 
	C38.293159,108.616035 40.419617,109.531342 42.600510,110.421692 
	C42.600510,110.421692 42.657604,110.412788 42.953671,110.857742 
M158.888626,52.500633 
	C158.888626,65.978851 158.888626,79.457077 158.888626,93.032928 
	C252.073059,93.032928 344.917694,93.032928 437.673340,93.032928 
	C437.673340,73.233612 437.673340,53.810310 437.673340,34.300049 
	C344.674347,34.300049 251.973114,34.300049 158.888626,34.300049 
	C158.888626,40.233475 158.888626,45.867374 158.888626,52.500633 
z"/>
<path fill="#202020" opacity="1.000000" stroke="none" 
	d="
M158.888626,52.000954 
	C158.888626,45.867374 158.888626,40.233475 158.888626,34.300049 
	C251.973114,34.300049 344.674347,34.300049 437.673340,34.300049 
	C437.673340,53.810310 437.673340,73.233612 437.673340,93.032928 
	C344.917694,93.032928 252.073059,93.032928 158.888626,93.032928 
	C158.888626,79.457077 158.888626,65.978851 158.888626,52.000954 
M198.500031,36.846252 
	C186.418762,36.846252 174.337494,36.846252 162.247040,36.846252 
	C162.247040,55.169155 162.247040,72.773918 162.247040,90.377426 
	C253.131912,90.377426 343.753601,90.377426 434.589294,90.377426 
	C434.589294,72.547768 434.589294,54.959728 434.589294,36.846226 
	C356.062469,36.846226 277.781250,36.846226 198.500031,36.846252 
z"/>
<path fill="#F6710E" opacity="1.000000" stroke="none" 
	d="
M29.075281,18.237631 
	C31.390379,16.282259 33.705479,14.326888 36.442047,12.805826 
	C36.908810,43.342476 36.968109,73.444824 36.947685,103.547119 
	C36.946877,104.739136 36.186882,105.930641 35.780621,107.122383 
	C33.567162,105.413673 31.353710,103.704971 29.038269,101.210114 
	C28.982616,73.028526 29.028948,45.633080 29.075281,18.237631 
z"/>
<path fill="#F77B10" opacity="1.000000" stroke="none" 
	d="
M35.973663,107.411560 
	C36.186882,105.930641 36.946877,104.739136 36.947685,103.547119 
	C36.968109,73.444824 36.908810,43.342476 36.794609,12.714961 
	C38.910301,11.130487 41.094902,10.071189 43.640182,9.463644 
	C44.002960,12.015000 43.613899,14.213961 44.115017,16.186810 
	C44.636730,18.240738 46.017738,20.076401 46.978333,22.375328 
	C45.901928,26.833471 44.870213,30.923786 43.838497,35.014099 
	C43.504936,36.795467 42.884686,38.576595 42.883202,40.358242 
	C42.871422,54.503178 42.977261,68.648209 43.052151,83.667282 
	C44.043034,88.357124 45.028748,92.172890 45.620388,96.080582 
	C44.817249,97.942673 44.339199,99.700310 44.014637,101.485847 
	C43.473404,104.463379 43.030418,107.458778 42.546074,110.446655 
	C40.419617,109.531342 38.293159,108.616035 35.973663,107.411560 
z"/>
<path fill="#F46A19" opacity="1.000000" stroke="none" 
	d="
M28.771137,18.362394 
	C29.028948,45.633080 28.982616,73.028526 28.896095,100.921783 
	C23.608862,96.322304 20.648491,90.021515 20.510107,82.813217 
	C20.216135,67.500168 20.184813,52.175831 20.416025,36.861713 
	C20.522829,29.787788 23.903259,23.791435 28.771137,18.362394 
z"/>
<path fill="#F7790B" opacity="1.000000" stroke="none" 
	d="
M102.003204,111.954773 
	C97.640160,112.009659 93.277107,112.064545 88.456894,111.566452 
	C88.002243,104.665970 88.004753,98.318474 88.472549,91.969727 
	C93.624344,91.971626 98.310867,91.974777 102.998108,92.447571 
	C103.003006,98.940651 103.007187,104.964081 102.794624,111.092964 
	C102.304161,111.388115 102.112602,111.640228 102.003204,111.954773 
z"/>
<path fill="#F87C0B" opacity="1.000000" stroke="none" 
	d="
M121.973503,9.205101 
	C125.874535,11.303219 129.775574,13.401336 133.828278,16.276051 
	C133.982300,26.278154 133.984650,35.503658 133.987015,44.729164 
	C132.929184,44.730659 131.871353,44.732151 130.345337,44.253742 
	C129.252518,42.079617 128.085556,40.381588 128.097397,38.691830 
	C128.147888,31.488125 125.076042,25.592339 120.882111,19.764849 
	C120.516388,18.992952 120.253479,18.487373 120.283676,17.755144 
	C121.042351,14.754027 121.507927,11.979564 121.973503,9.205101 
z"/>
<path fill="#F87B0C" opacity="1.000000" stroke="none" 
	d="
M130.030212,75.366890 
	C131.087219,75.308876 132.144241,75.250862 133.595795,75.721481 
	C133.994186,79.060745 133.905884,81.875153 134.020813,84.681221 
	C134.269135,90.744080 134.621704,96.802666 134.931641,102.862999 
	C131.205338,105.319534 127.479042,107.776070 123.376968,109.811432 
	C122.325600,106.584846 121.650024,103.779419 121.016472,100.623520 
	C123.364319,95.117371 125.879555,90.041801 127.894341,84.774796 
	C129.031693,81.801552 129.345459,78.513268 130.030212,75.366890 
z"/>
<path fill="#F56E0F" opacity="1.000000" stroke="none" 
	d="
M88.007263,91.970970 
	C88.004753,98.318474 88.002243,104.665970 87.999268,111.477951 
	C84.301132,112.001831 80.603447,112.061234 76.452766,111.567123 
	C76.007126,104.260567 76.014481,97.507530 76.021843,90.754486 
	C78.039955,90.637695 80.058060,90.520897 82.648666,90.811752 
	C84.816521,91.469925 86.411896,91.720451 88.007263,91.970970 
z"/>
<path fill="#0F55AD" opacity="1.000000" stroke="none" 
	d="
M80.990723,76.829239 
	C79.542381,77.817757 78.094048,78.806274 76.312355,79.465057 
	C73.753998,73.310791 71.628876,67.444366 69.218758,61.697460 
	C68.743118,60.563313 67.169991,59.889423 66.102997,59.003277 
	C66.048828,55.964581 65.994659,52.925880 66.366989,49.479111 
	C67.859917,49.383110 68.926353,49.695187 70.185760,50.272797 
	C71.890991,51.263191 73.403267,51.988060 75.227524,52.862476 
	C76.626396,48.856590 77.793877,45.513348 78.961357,42.170105 
	C80.510765,42.951412 82.060165,43.732716 83.632614,45.092453 
	C80.521431,48.684109 81.599861,55.956390 73.637268,54.038822 
	C74.427155,56.985245 74.865860,59.032333 75.526115,61.005283 
	C77.296974,66.296890 79.162682,71.556763 80.990723,76.829239 
z"/>
<path fill="#F9850B" opacity="1.000000" stroke="none" 
	d="
M134.438477,44.835705 
	C133.984650,35.503658 133.982300,26.278154 133.967133,16.593311 
	C142.712936,23.542273 145.863235,33.064045 144.681229,44.942245 
	C141.350113,44.942245 138.120010,44.942245 134.438477,44.835705 
z"/>
<path fill="#F36313" opacity="1.000000" stroke="none" 
	d="
M75.581787,90.596451 
	C76.014481,97.507530 76.007126,104.260567 75.999222,111.478226 
	C72.632408,112.002548 69.266136,112.062248 65.449615,111.567680 
	C64.680199,104.259933 64.361038,97.506462 64.041870,90.752983 
	C67.741821,90.648125 71.441780,90.543266 75.581787,90.596451 
z"/>
<path fill="#F9870F" opacity="1.000000" stroke="none" 
	d="
M135.244598,102.746384 
	C134.621704,96.802666 134.269135,90.744080 134.020813,84.681221 
	C133.905884,81.875153 133.994186,79.060745 133.985687,75.805756 
	C137.427551,75.361389 140.874100,75.361389 144.530640,75.361389 
	C146.363586,86.203606 142.831863,95.022469 135.244598,102.746384 
z"/>
<path fill="#FA8805" opacity="1.000000" stroke="none" 
	d="
M103.011375,110.987511 
	C103.007187,104.964081 103.003006,98.940651 103.434326,92.445976 
	C106.600334,91.487610 109.330841,91.000481 112.061356,90.513351 
	C113.090309,90.293976 114.119255,90.074593 115.599930,90.233704 
	C116.705017,94.421700 117.358383,98.231194 117.958611,102.376358 
	C112.940773,105.470520 107.976074,108.229019 103.011375,110.987511 
z"/>
<path fill="#F7790A" opacity="1.000000" stroke="none" 
	d="
M98.977509,29.371193 
	C95.613022,29.472414 92.248528,29.573635 88.443436,29.101242 
	C88.000206,22.029848 87.997574,15.532067 88.453415,9.024587 
	C92.272957,9.015882 95.634041,9.016876 98.996933,9.484499 
	C98.991669,16.424482 98.984589,22.897839 98.977509,29.371193 
z"/>
<path fill="#F56D0F" opacity="1.000000" stroke="none" 
	d="
M87.994949,9.034286 
	C87.997574,15.532067 88.000206,22.029848 88.008514,28.951305 
	C84.636803,29.474510 81.259407,29.574038 77.442459,29.099220 
	C77.001961,22.027826 77.001022,15.530782 77.458008,9.023833 
	C81.275612,9.020715 84.635284,9.027500 87.994949,9.034286 
z"/>
<path fill="#F15916" opacity="1.000000" stroke="none" 
	d="
M63.609810,90.596375 
	C64.361038,97.506462 64.680199,104.259933 64.998711,111.477913 
	C64.542969,111.999474 64.087875,112.056534 63.095612,111.766647 
	C59.352554,108.959595 56.146667,106.499489 53.249252,103.800705 
	C54.050758,99.284233 54.543789,95.006439 55.036819,90.728653 
	C57.750465,90.632362 60.464108,90.536072 63.609810,90.596375 
z"/>
<path fill="#FA8805" opacity="1.000000" stroke="none" 
	d="
M119.990570,17.981796 
	C120.253479,18.487373 120.516388,18.992952 120.509705,19.827133 
	C119.460457,23.901377 118.680801,27.647017 117.901146,31.392654 
	C114.553581,30.819090 111.206024,30.245523 107.431290,29.101002 
	C107.002739,26.735144 106.803589,24.913738 107.039856,23.150682 
	C107.585884,19.076117 108.342926,15.029829 109.367691,11.012100 
	C113.144188,13.362017 116.567375,15.671907 119.990570,17.981796 
z"/>
<path fill="#F25C14" opacity="1.000000" stroke="none" 
	d="
M67.976273,29.372448 
	C65.556854,29.472046 63.137432,29.571644 60.086292,29.210346 
	C59.302799,25.347538 59.473835,21.887686 58.877548,18.565557 
	C58.522808,16.589142 56.961151,14.829356 56.104889,12.677532 
	C58.170010,11.238170 60.072346,10.093451 62.404945,8.962555 
	C64.557732,8.993890 66.280251,9.011401 68.001816,9.495556 
	C67.992661,16.432281 67.984467,22.902365 67.976273,29.372448 
z"/>
<path fill="#F05519" opacity="1.000000" stroke="none" 
	d="
M55.942101,12.972177 
	C56.961151,14.829356 58.522808,16.589142 58.877548,18.565557 
	C59.473835,21.887686 59.302799,25.347538 59.651081,29.064735 
	C54.415142,30.280228 48.141327,28.664816 44.108006,34.784096 
	C44.870213,30.923786 45.901928,26.833471 47.242218,22.179892 
	C50.347897,18.735142 53.144997,15.853659 55.942101,12.972177 
z"/>
<path fill="#F36412" opacity="1.000000" stroke="none" 
	d="
M68.408112,29.522461 
	C67.984467,22.902365 67.992661,16.432281 68.451401,9.485525 
	C71.601311,9.017148 74.300697,9.025442 77.000076,9.033737 
	C77.001022,15.530782 77.001961,22.027826 77.008766,28.948462 
	C74.289734,29.472191 71.564835,29.572330 68.408112,29.522461 
z"/>
<path fill="#F77E24" opacity="1.000000" stroke="none" 
	d="
M77.458008,9.023833 
	C74.300697,9.025442 71.601311,9.017148 68.452354,9.018884 
	C66.280251,9.011401 64.557732,8.993890 62.409763,8.768974 
	C61.982048,8.302259 61.991581,8.043385 62.012913,7.784944 
	C81.003021,7.897179 99.993179,8.002529 118.983055,8.145683 
	C119.779900,8.151690 120.574097,8.509809 121.671509,8.954494 
	C121.507927,11.979564 121.042351,14.754027 120.283676,17.755146 
	C116.567375,15.671907 113.144188,13.362017 109.117508,10.732502 
	C105.341057,9.947875 102.168083,9.482873 98.995117,9.017872 
	C95.634041,9.016876 92.272957,9.015882 88.453415,9.024586 
	C84.635284,9.027500 81.275612,9.020715 77.458008,9.023833 
z"/>
<path fill="#1060B2" opacity="1.000000" stroke="none" 
	d="
M81.320908,76.838135 
	C79.162682,71.556763 77.296974,66.296890 75.526115,61.005283 
	C74.865860,59.032333 74.427155,56.985245 73.637268,54.038822 
	C81.599861,55.956390 80.521431,48.684109 83.813766,45.363373 
	C84.891373,45.469048 85.810867,45.882233 86.848846,46.928726 
	C85.272263,50.939533 83.434357,54.256462 81.962257,57.728489 
	C81.469574,58.890514 81.606468,60.538021 81.980827,61.808891 
	C83.191658,65.919334 84.646545,69.957893 86.007408,74.024155 
	C84.555305,74.965111 83.103203,75.906075 81.320908,76.838135 
z"/>
<path fill="#FC9408" opacity="1.000000" stroke="none" 
	d="
M118.011749,102.040695 
	C117.358383,98.231194 116.705017,94.421700 115.993088,90.190422 
	C119.940208,87.327019 122.566231,84.077339 123.019081,79.148682 
	C123.354225,75.501221 126.124977,74.888901 129.633179,75.276161 
	C129.345459,78.513268 129.031693,81.801552 127.894341,84.774796 
	C125.879555,90.041801 123.364319,95.117371 120.726883,100.755974 
	C119.600769,101.506165 118.806259,101.773430 118.011749,102.040695 
z"/>
<path fill="#F98108" opacity="1.000000" stroke="none" 
	d="
M98.996933,9.484499 
	C102.168083,9.482873 105.341057,9.947875 108.764206,10.692474 
	C108.342926,15.029829 107.585884,19.076117 107.039856,23.150682 
	C106.803589,24.913738 107.002739,26.735144 107.010574,28.952583 
	C104.621834,29.473904 102.226639,29.572687 99.404480,29.521332 
	C98.984589,22.897839 98.991669,16.424482 98.996933,9.484499 
z"/>
<path fill="#FC9816" opacity="1.000000" stroke="none" 
	d="
M118.075111,31.669714 
	C118.680801,27.647017 119.460457,23.901377 120.612518,20.093452 
	C125.076042,25.592339 128.147888,31.488125 128.097397,38.691830 
	C128.085556,40.381588 129.252518,42.079617 129.970123,44.111275 
	C126.048790,45.389610 123.715195,44.255657 122.628723,39.842819 
	C121.934296,37.022343 119.759941,34.566238 118.075111,31.669714 
z"/>
<path fill="#FA8B16" opacity="1.000000" stroke="none" 
	d="
M61.577057,7.631248 
	C61.991581,8.043385 61.982048,8.302259 61.979500,8.755151 
	C60.072346,10.093451 58.170010,11.238170 56.104889,12.677532 
	C53.144997,15.853659 50.347897,18.735142 47.286911,21.812061 
	C46.017738,20.076401 44.636730,18.240738 44.115017,16.186810 
	C43.613899,14.213961 44.002960,12.015000 44.003632,9.459277 
	C49.718006,8.494622 55.429600,7.986088 61.577057,7.631248 
z"/>
<path fill="#FA8508" opacity="1.000000" stroke="none" 
	d="
M52.940781,104.039391 
	C56.146667,106.499489 59.352554,108.959595 62.758579,111.685822 
	C56.894287,111.719917 50.829853,111.487885 44.218048,110.878571 
	C43.332985,110.471794 42.995296,110.442291 42.657604,110.412788 
	C42.657604,110.412788 42.600510,110.421692 42.573288,110.434174 
	C43.030418,107.458778 43.473404,104.463379 44.014637,101.485847 
	C44.339199,99.700310 44.817249,97.942673 45.879196,96.294937 
	C48.668316,98.958046 50.804550,101.498718 52.940781,104.039391 
z"/>
<path fill="#0F49A9" opacity="1.000000" stroke="none" 
	d="
M66.021767,59.465385 
	C67.169991,59.889423 68.743118,60.563313 69.218758,61.697460 
	C71.628876,67.444366 73.753998,73.310791 75.985893,79.510971 
	C68.864685,83.652527 65.920776,81.868484 65.908157,73.754532 
	C65.900993,69.145546 65.928596,64.536514 66.021767,59.465385 
z"/>
<path fill="#126BB7" opacity="1.000000" stroke="none" 
	d="
M86.338150,73.982826 
	C84.646545,69.957893 83.191658,65.919334 81.980827,61.808891 
	C81.606468,60.538021 81.469574,58.890514 81.962257,57.728489 
	C83.434357,54.256462 85.272263,50.939533 87.020683,47.184280 
	C87.875328,47.439903 88.676605,48.073292 89.730637,49.290726 
	C86.818726,57.112232 86.390083,64.214783 91.028381,71.067490 
	C89.575218,72.025490 88.122055,72.983498 86.338150,73.982826 
z"/>
<path fill="#F0571E" opacity="1.000000" stroke="none" 
	d="
M53.249252,103.800705 
	C50.804550,101.498718 48.668316,98.958046 46.273273,96.203018 
	C45.028748,92.172890 44.043034,88.357124 43.081100,84.116364 
	C45.748917,87.717300 49.139202,90.504425 54.650108,90.570908 
	C54.543789,95.006439 54.050758,99.284233 53.249252,103.800705 
z"/>
<path fill="#F67110" opacity="1.000000" stroke="none" 
	d="
M117.958611,102.376366 
	C118.806259,101.773430 119.600769,101.506165 120.684860,101.106445 
	C121.650024,103.779419 122.325600,106.584846 123.001808,109.835602 
	C116.309700,110.898972 109.616966,111.516998 102.463715,112.044907 
	C102.112602,111.640228 102.304161,111.388115 102.794624,111.092964 
	C107.976074,108.229019 112.940773,105.470520 117.958611,102.376366 
z"/>
<path fill="#1D8FC7" opacity="1.000000" stroke="none" 
	d="
M99.139015,53.631561 
	C101.239357,55.691631 104.606186,57.528587 105.021400,59.885525 
	C105.328835,61.630596 101.966415,64.238350 99.916489,66.108406 
	C98.492294,67.407631 96.520767,68.106873 94.419350,68.730820 
	C94.034096,67.260139 94.023254,66.132805 94.326279,64.837570 
	C96.139778,60.990303 97.639397,57.310932 99.139015,53.631561 
z"/>
<path fill="#1174BB" opacity="1.000000" stroke="none" 
	d="
M94.012405,65.005470 
	C94.023254,66.132805 94.034096,67.260139 94.070129,68.809937 
	C93.278671,69.823654 92.462029,70.414902 91.336884,71.036819 
	C86.390083,64.214783 86.818726,57.112232 89.990189,49.489151 
	C91.131981,49.676098 92.266960,50.248669 93.691879,51.342514 
	C93.284073,54.229382 92.823700,56.700611 91.829613,58.934311 
	C90.534142,61.845196 91.400574,63.659416 94.012405,65.005470 
z"/>
<path fill="#1644A7" opacity="1.000000" stroke="none" 
	d="
M69.992790,50.007267 
	C68.926353,49.695187 67.859917,49.383110 66.459641,49.032303 
	C66.078224,47.349339 65.898705,45.696274 66.008041,44.062546 
	C66.324280,39.337013 68.790939,37.727936 73.882370,39.581810 
	C72.724144,43.485500 71.358467,46.746384 69.992790,50.007267 
z"/>
<path fill="#117FBF" opacity="1.000000" stroke="none" 
	d="
M94.326286,64.837570 
	C91.400574,63.659416 90.534142,61.845196 91.829613,58.934311 
	C92.823700,56.700611 93.284073,54.229382 93.989227,51.479652 
	C95.566864,51.781227 97.137085,52.466946 98.923157,53.392113 
	C97.639397,57.310932 96.139778,60.990303 94.326286,64.837570 
z"/>
<path fill="#0F4AA9" opacity="1.000000" stroke="none" 
	d="
M70.185760,50.272797 
	C71.358467,46.746384 72.724144,43.485500 74.139992,39.798298 
	C75.638100,40.122803 77.086044,40.873631 78.747673,41.897282 
	C77.793877,45.513348 76.626396,48.856590 75.227524,52.862476 
	C73.403267,51.988060 71.890991,51.263191 70.185760,50.272797 
z"/>
<path fill="#F9902E" opacity="1.000000" stroke="none" 
	d="
M111.601379,90.400505 
	C109.330841,91.000481 106.600334,91.487610 103.433609,91.976334 
	C98.310867,91.974777 93.624344,91.971626 88.472542,91.969727 
	C86.411896,91.720451 84.816521,91.469925 83.073761,90.913528 
	C92.331383,90.500984 101.736397,90.394318 111.601379,90.400505 
z"/>
<path fill="#F77B10" opacity="1.000000" stroke="none" 
	d="
M42.805637,110.635269 
	C42.995296,110.442291 43.332985,110.471794 43.831741,110.713326 
	C43.646423,110.902809 43.300049,110.880280 42.805637,110.635269 
z"/>
<path fill="#F9F9F9" opacity="1.000000" stroke="none" 
	d="
M199.000031,36.846237 
	C277.781250,36.846226 356.062469,36.846226 434.589294,36.846226 
	C434.589294,54.959728 434.589294,72.547768 434.589294,90.377426 
	C343.753601,90.377426 253.131912,90.377426 162.247040,90.377426 
	C162.247040,72.773918 162.247040,55.169155 162.247040,36.846252 
	C174.337494,36.846252 186.418762,36.846252 199.000031,36.846237 
M261.500000,43.140724 
	C234.097229,43.140724 206.694458,43.140724 179.246201,43.140724 
	C179.246201,56.256779 179.246201,68.773987 179.246201,81.259583 
	C219.310944,81.259583 258.977356,81.259583 298.614014,81.259583 
	C298.614014,68.438148 298.614014,56.026340 298.614014,43.140789 
	C286.382629,43.140789 274.441315,43.140789 261.500000,43.140724 
M377.478119,59.930653 
	C378.511230,59.765644 379.544373,59.600632 380.672211,59.420490 
	C377.983398,52.822418 373.467834,50.238384 367.681305,51.649723 
	C361.950256,53.047535 359.123566,57.385880 359.819519,63.715904 
	C360.401215,69.006813 364.443176,72.535271 370.078888,72.671883 
	C375.663544,72.807259 379.549713,69.672089 380.544983,63.217251 
	C377.882355,64.250137 375.798584,65.464058 373.580994,65.803253 
	C371.416718,66.134293 368.055756,66.381676 367.147552,65.193077 
	C366.052704,63.760212 366.146820,60.070301 367.308838,58.681728 
	C368.264740,57.539410 371.546082,58.154156 373.766632,58.343674 
	C374.784088,58.430515 375.729126,59.366119 377.478119,59.930653 
M345.878418,51.900356 
	C342.777740,58.387417 339.677032,64.874481 336.576355,71.361542 
	C337.102142,71.862930 337.627899,72.364319 338.153656,72.865707 
	C340.140320,71.904030 342.041016,70.531410 344.137115,70.092995 
	C346.359100,69.628258 348.830017,69.732124 351.075165,70.177650 
	C353.245087,70.608253 355.265930,71.790291 357.352234,72.642242 
	C355.884338,65.581589 353.871979,59.793819 351.319702,54.254845 
	C350.745392,53.008553 348.286224,52.630806 345.878418,51.900356 
M416.688324,71.188576 
	C420.774078,66.795395 419.968109,62.610836 414.601257,60.394234 
	C412.657501,59.591423 410.703125,58.814247 408.753601,58.025394 
	C408.931732,57.452484 409.109863,56.879570 409.287994,56.306660 
	C412.358643,56.999123 415.429291,57.691589 418.944672,58.484344 
	C418.501495,53.647953 415.830963,51.677662 412.597198,51.728497 
	C409.756287,51.773155 405.969727,52.573662 404.303864,54.507450 
	C400.083801,59.406147 406.135132,61.859035 408.764191,65.508545 
	C406.382568,65.904655 404.742645,66.177399 403.036926,66.461090 
	C405.212646,72.385857 408.620392,73.639725 416.688324,71.188576 
M321.975464,62.488091 
	C321.975464,65.598259 321.975464,68.708435 321.975464,72.178291 
	C324.331299,72.065071 326.049133,71.982513 327.677032,71.904274 
	C327.899689,69.721642 328.063324,68.117661 328.242310,66.363022 
	C330.459015,66.192993 332.390472,66.044846 334.517517,65.881691 
	C334.517517,64.247543 334.517517,62.867702 334.517517,62.220589 
	C331.990204,61.053108 329.991150,60.129646 327.992096,59.206188 
	C330.216492,58.154282 332.440918,57.102375 335.050842,55.868164 
	C335.879364,51.476757 331.765320,50.172291 321.975433,52.724518 
	C321.975433,55.580395 321.975433,58.546566 321.975464,62.488091 
M394.996185,59.843468 
	C396.804840,58.505699 398.613495,57.167934 401.155487,55.287739 
	C401.635284,53.435108 401.120544,51.616001 397.408539,51.808308 
	C393.094025,52.031830 388.761719,51.900066 384.438080,51.976871 
	C384.001770,51.984619 383.572113,52.366856 382.906525,52.687466 
	C383.018097,54.099998 383.130402,55.521900 383.236603,56.866467 
	C385.353455,57.150944 387.098877,57.385502 389.253174,57.675011 
	C389.253174,62.604755 389.253174,67.201347 389.253174,71.888336 
	C391.310577,71.888336 392.903137,71.888336 394.990906,71.888336 
	C394.990906,68.021942 394.990906,64.397453 394.996185,59.843468 
z"/>
<path fill="#F67914" opacity="1.000000" stroke="none" 
	d="
M262.000000,43.140755 
	C274.441315,43.140789 286.382629,43.140789 298.614014,43.140789 
	C298.614014,56.026340 298.614014,68.438148 298.614014,81.259583 
	C258.977356,81.259583 219.310944,81.259583 179.246201,81.259583 
	C179.246201,68.773987 179.246201,56.256779 179.246201,43.140724 
	C206.694458,43.140724 234.097229,43.140724 262.000000,43.140755 
M251.957626,53.838448 
	C251.957626,57.063976 251.957626,60.289501 251.957626,64.858604 
	C247.598618,59.265289 244.140381,54.827793 240.682129,50.390297 
	C240.116196,50.714073 239.550247,51.037849 238.984314,51.361626 
	C239.319122,57.576782 238.160980,63.875896 239.721176,70.022141 
	C240.313461,70.032753 240.905731,70.043365 241.498001,70.053970 
	C241.705063,65.870255 241.912109,61.686539 242.179077,56.292488 
	C244.589874,59.680820 246.167755,62.000648 247.853729,64.239044 
	C249.505966,66.432617 251.268234,68.543289 252.982208,70.690346 
	C253.560913,70.435188 254.139603,70.180038 254.718307,69.924889 
	C254.718307,64.205521 254.758774,58.485409 254.654449,52.767941 
	C254.644257,52.208813 253.742813,51.665951 253.255051,51.115540 
	C252.830063,51.727283 252.405060,52.339027 251.957626,53.838448 
M262.000305,61.482315 
	C262.000305,64.254295 262.000305,67.026268 262.000305,69.599777 
	C266.416290,69.599777 270.127625,69.599777 273.838928,69.599777 
	C273.854492,69.133026 273.870056,68.666283 273.885620,68.199532 
	C271.064850,68.023346 268.244080,67.847160 265.148468,67.653801 
	C265.148468,65.663963 265.148468,63.944225 265.148468,62.145435 
	C267.985168,61.741947 270.533020,61.379543 273.080872,61.017143 
	C273.058105,60.525658 273.035370,60.034172 273.012634,59.542686 
	C270.371307,59.249634 267.729980,58.956581 264.807770,58.632370 
	C264.919312,56.779110 265.014587,55.195766 265.114502,53.535004 
	C268.256012,53.256466 271.024933,53.010963 273.793884,52.765461 
	C273.761353,52.319153 273.728821,51.872849 273.696289,51.426544 
	C269.961792,51.426544 266.227295,51.426544 262.000305,51.426544 
	C262.000305,54.574718 262.000305,57.539810 262.000305,61.482315 
M221.377396,57.031536 
	C218.957718,51.926323 215.248627,49.738644 210.733017,50.753334 
	C206.210495,51.769577 203.144394,55.706085 203.096466,60.557804 
	C203.051300,65.130905 205.929764,69.139137 210.247498,70.190048 
	C213.622345,71.011475 216.875961,71.110817 219.309509,66.077095 
	C216.331955,67.290718 213.923599,69.184036 212.640564,68.600975 
	C210.151428,67.469849 207.521255,65.317307 206.367416,62.908726 
	C204.844879,59.730469 205.874573,55.800343 209.358719,54.445869 
	C211.721878,53.527191 214.903671,54.350494 217.624573,54.880947 
	C218.847076,55.119282 219.837860,56.546200 221.377396,57.031536 
M228.939667,52.933754 
	C228.939667,58.611118 228.939667,64.288483 228.939667,69.965843 
	C229.667297,69.935493 230.394943,69.905144 231.122574,69.874786 
	C231.122574,63.997227 231.130890,58.119530 231.037399,52.243458 
	C231.036087,52.161655 229.754822,52.100220 228.939667,52.933754 
z"/>
<path fill="#326FBB" opacity="1.000000" stroke="none" 
	d="
M377.092560,59.923729 
	C375.729126,59.366119 374.784088,58.430515 373.766632,58.343674 
	C371.546082,58.154156 368.264740,57.539410 367.308838,58.681728 
	C366.146820,60.070301 366.052704,63.760212 367.147552,65.193077 
	C368.055756,66.381676 371.416718,66.134293 373.580994,65.803253 
	C375.798584,65.464058 377.882355,64.250137 380.544983,63.217251 
	C379.549713,69.672089 375.663544,72.807259 370.078888,72.671883 
	C364.443176,72.535271 360.401215,69.006813 359.819519,63.715904 
	C359.123566,57.385880 361.950256,53.047535 367.681305,51.649723 
	C373.467834,50.238384 377.983398,52.822418 380.672211,59.420490 
	C379.544373,59.600632 378.511230,59.765644 377.092560,59.923729 
z"/>
<path fill="#306EBB" opacity="1.000000" stroke="none" 
	d="
M346.286560,51.876793 
	C348.286224,52.630806 350.745392,53.008553 351.319702,54.254845 
	C353.871979,59.793819 355.884338,65.581589 357.352234,72.642242 
	C355.265930,71.790291 353.245087,70.608253 351.075165,70.177650 
	C348.830017,69.732124 346.359100,69.628258 344.137115,70.092995 
	C342.041016,70.531410 340.140320,71.904030 338.153656,72.865707 
	C337.627899,72.364319 337.102142,71.862930 336.576355,71.361542 
	C339.677032,64.874481 342.777740,58.387417 346.286560,51.876793 
z"/>
<path fill="#3571BC" opacity="1.000000" stroke="none" 
	d="
M416.345154,71.383568 
	C408.620392,73.639725 405.212646,72.385857 403.036926,66.461090 
	C404.742645,66.177399 406.382568,65.904655 408.764191,65.508545 
	C406.135132,61.859035 400.083801,59.406147 404.303864,54.507450 
	C405.969727,52.573662 409.756287,51.773155 412.597198,51.728497 
	C415.830963,51.677662 418.501495,53.647953 418.944672,58.484344 
	C415.429291,57.691589 412.358643,56.999123 409.287994,56.306660 
	C409.109863,56.879570 408.931732,57.452484 408.753601,58.025394 
	C410.703125,58.814247 412.657501,59.591423 414.601257,60.394234 
	C419.968109,62.610836 420.774078,66.795395 416.345154,71.383568 
z"/>
<path fill="#2F6DBA" opacity="1.000000" stroke="none" 
	d="
M321.975464,62.000412 
	C321.975433,58.546566 321.975433,55.580395 321.975433,52.724518 
	C331.765320,50.172291 335.879364,51.476757 335.050842,55.868164 
	C332.440918,57.102375 330.216492,58.154282 327.992096,59.206184 
	C329.991150,60.129646 331.990204,61.053108 334.517517,62.220589 
	C334.517517,62.867702 334.517517,64.247543 334.517517,65.881691 
	C332.390472,66.044846 330.459015,66.192993 328.242310,66.363022 
	C328.063324,68.117661 327.899689,69.721642 327.677032,71.904274 
	C326.049133,71.982513 324.331299,72.065071 321.975464,72.178291 
	C321.975464,68.708435 321.975464,65.598259 321.975464,62.000412 
z"/>
<path fill="#2D6CBA" opacity="1.000000" stroke="none" 
	d="
M394.993530,60.308220 
	C394.990906,64.397453 394.990906,68.021942 394.990906,71.888336 
	C392.903137,71.888336 391.310577,71.888336 389.253174,71.888336 
	C389.253174,67.201347 389.253174,62.604755 389.253174,57.675011 
	C387.098877,57.385502 385.353455,57.150944 383.236603,56.866467 
	C383.130402,55.521900 383.018097,54.099998 382.906525,52.687466 
	C383.572113,52.366856 384.001770,51.984619 384.438080,51.976871 
	C388.761719,51.900066 393.094025,52.031830 397.408539,51.808308 
	C401.120544,51.616001 401.635284,53.435108 401.155487,55.287739 
	C398.613495,57.167934 396.804840,58.505699 394.993530,60.308220 
z"/>
<path fill="#FDE1CA" opacity="1.000000" stroke="none" 
	d="
M251.968842,53.394608 
	C252.405060,52.339027 252.830063,51.727283 253.255051,51.115540 
	C253.742813,51.665951 254.644257,52.208813 254.654449,52.767941 
	C254.758774,58.485409 254.718307,64.205521 254.718307,69.924889 
	C254.139603,70.180038 253.560913,70.435188 252.982208,70.690346 
	C251.268234,68.543289 249.505966,66.432617 247.853729,64.239044 
	C246.167755,62.000648 244.589874,59.680820 242.179077,56.292488 
	C241.912109,61.686539 241.705063,65.870255 241.498001,70.053970 
	C240.905731,70.043365 240.313461,70.032753 239.721176,70.022141 
	C238.160980,63.875896 239.319122,57.576782 238.984314,51.361626 
	C239.550247,51.037849 240.116196,50.714073 240.682129,50.390297 
	C244.140381,54.827793 247.598618,59.265289 251.957626,64.858604 
	C251.957626,60.289501 251.957626,57.063976 251.968842,53.394608 
z"/>
<path fill="#FDE6D3" opacity="1.000000" stroke="none" 
	d="
M262.000305,60.993607 
	C262.000305,57.539810 262.000305,54.574718 262.000305,51.426544 
	C266.227295,51.426544 269.961792,51.426544 273.696289,51.426544 
	C273.728821,51.872849 273.761353,52.319153 273.793884,52.765461 
	C271.024933,53.010963 268.256012,53.256466 265.114502,53.535004 
	C265.014587,55.195766 264.919312,56.779110 264.807770,58.632370 
	C267.729980,58.956581 270.371307,59.249634 273.012634,59.542686 
	C273.035370,60.034172 273.058105,60.525658 273.080872,61.017143 
	C270.533020,61.379543 267.985168,61.741947 265.148468,62.145435 
	C265.148468,63.944225 265.148468,65.663963 265.148468,67.653801 
	C268.244080,67.847160 271.064850,68.023346 273.885620,68.199532 
	C273.870056,68.666283 273.854492,69.133026 273.838928,69.599777 
	C270.127625,69.599777 266.416290,69.599777 262.000305,69.599777 
	C262.000305,67.026268 262.000305,64.254295 262.000305,60.993607 
z"/>
<path fill="#FEEADA" opacity="1.000000" stroke="none" 
	d="
M221.155594,57.232666 
	C219.837860,56.546200 218.847076,55.119282 217.624573,54.880947 
	C214.903671,54.350494 211.721878,53.527191 209.358719,54.445869 
	C205.874573,55.800343 204.844879,59.730469 206.367416,62.908726 
	C207.521255,65.317307 210.151428,67.469849 212.640564,68.600975 
	C213.923599,69.184036 216.331955,67.290718 219.309509,66.077095 
	C216.875961,71.110817 213.622345,71.011475 210.247498,70.190048 
	C205.929764,69.139137 203.051300,65.130905 203.096466,60.557804 
	C203.144394,55.706085 206.210495,51.769577 210.733017,50.753334 
	C215.248627,49.738644 218.957718,51.926323 221.155594,57.232666 
z"/>
<path fill="#FEF4EC" opacity="1.000000" stroke="none" 
	d="
M229.005310,52.481514 
	C229.754822,52.100220 231.036087,52.161655 231.037399,52.243458 
	C231.130890,58.119530 231.122574,63.997227 231.122574,69.874786 
	C230.394943,69.905144 229.667297,69.935493 228.939667,69.965843 
	C228.939667,64.288483 228.939667,58.611118 229.005310,52.481514 
z"/>
</svg>